<svg aria-hidden="true" style="position:absolute;width:0;height:0;overflow:hidden" xmlns="http://www.w3.org/2000/svg">
  <defs>
    <symbol id="icon-client-6" viewBox="0 0 57 32">
      <path d="M28.493 14.618c-.203-.262-.326-.596-.326-.958 0-.036.001-.071.004-.107v.005-1.538c0-.471.107-.829.321-1.075.213-.245.581-.367 1.101-.366.489 0 .837.105 1.042.313.224.266.333.591.308.919v.362h-.875v-.366c.003-.119-.005-.239-.026-.358-.015-.087-.06-.161-.125-.212l-.001-.001c-.079-.053-.175-.084-.279-.084-.013 0-.026.001-.039.001h.002c-.011-.001-.025-.001-.038-.001-.11 0-.212.033-.297.09l.002-.001c-.072.058-.124.139-.145.232v.003c-.022.105-.035.226-.035.351v.031-.002 1.866c-.014.18.025.36.112.524.045.056.104.1.172.126l.003.001c.051.02.111.032.173.032.019 0 .037-.001.055-.003H29.6c.011.001.024.001.037.001.102 0 .197-.032.274-.087l-.002.001c.068-.056.115-.135.13-.224v-.002c.02-.124.03-.249.027-.374v-.379h.875v.346c.002.027.003.059.003.091 0 .332-.115.638-.308.878l.002-.003c-.201.228-.544.342-1.047.342s-.884-.122-1.1-.375zm3.644.016c-.221-.24-.332-.588-.332-1.05v-1.618c0-.457.11-.803.332-1.037s.59-.351 1.109-.35c.515 0 .882.117 1.103.35.221.235.333.58.333 1.037v1.617c0 .457-.112.807-.337 1.049s-.59.361-1.1.361-.886-.122-1.109-.359zm1.516-.389c.079-.149.115-.314.105-.478v-1.981c.001-.016.002-.035.002-.053 0-.152-.039-.296-.107-.421l.002.005c-.046-.057-.107-.101-.176-.128l-.003-.001c-.051-.02-.11-.031-.171-.031-.021 0-.042.001-.062.004h.002c-.018-.002-.038-.004-.059-.004-.062 0-.121.011-.176.032l.003-.001c-.072.027-.133.071-.179.128l-.001.001c-.08.147-.116.308-.105.469v1.99c-.011.165.025.329.105.479.051.05.114.091.185.118.067.027.144.042.225.042s.158-.016.229-.044l-.004.001c.071-.028.133-.068.185-.118v-.01zm2.082-3.619h.942l.708 2.984.725-2.984h.916l.093 4.307h-.678l-.073-2.994-.699 2.994h-.544l-.724-3.005-.067 3.005h-.685l.085-4.307zm4.441 0h1.468c.845 0 1.268.407 1.268 1.223 0 .781-.445 1.171-1.335 1.17h-.5v1.914h-.906l.005-4.308zm1.254 1.841c.09.01.18.003.267-.021.085-.023.165-.062.231-.115.104-.146.15-.316.131-.486.001-.014.001-.031.001-.047 0-.122-.016-.241-.047-.353l.002.009c-.014-.046-.037-.085-.067-.119-.032-.035-.07-.064-.112-.085l-.002-.001c-.105-.045-.228-.071-.357-.071-.017 0-.033 0-.05.001h.002-.351v1.287h.352zm2.789-1.841h.973l.998 4.307h-.845l-.197-.993h-.868l-.203.993h-.857l.998-4.307zm.831 2.816-.339-1.808-.339 1.808h.677zm1.946-2.816h.635l1.213 2.457v-2.457h.752v4.307h-.603l-1.221-2.565v2.565h-.777l.002-4.307zm4.361 2.665-1.009-2.659h.85l.616 1.708.578-1.708h.832l-.997 2.659v1.642h-.869V13.29zm-21.465 3.526v.225h-.739v1.75h-.31v-1.75H28.1v-.225h1.792zm2.318 1.976h-.246c-.023 0-.044-.007-.061-.019-.017-.011-.031-.026-.039-.045v-.001l-.214-.469h-1.026l-.213.469c-.007.021-.018.039-.033.053-.017.012-.039.019-.062.019h-.245l.906-1.975h.315l.917 1.968zm-1.501-.734h.855l-.363-.804a1.2783 1.2783 0 0 1-.064-.176l-.003-.01c-.013.037-.023.074-.034.105l-.033.083-.358.803zm3.062.539c.057.003.114.003.171 0 .049-.004.097-.012.145-.023.044-.009.088-.021.131-.036.04-.014.08-.031.121-.049v-.444h-.365c-.017 0-.033-.006-.046-.016-.006-.004-.01-.01-.014-.016-.003-.005-.004-.011-.004-.018v-.153h.703v.757c-.11.068-.237.123-.372.158l-.01.002c-.075.019-.15.033-.227.041-.088.009-.176.012-.265.012h-.011c-.159 0-.312-.027-.455-.077l.01.003c-.14-.049-.26-.119-.364-.208l.002.001c-.097-.086-.176-.19-.231-.307l-.002-.006c-.053-.117-.083-.253-.083-.397v-.013.001-.012c0-.145.03-.283.084-.407l-.003.007c.052-.117.132-.224.234-.313.103-.089.227-.158.363-.205.155-.051.32-.076.485-.074.084 0 .169.005.252.017.074.011.146.027.215.05.064.02.124.047.181.078.055.031.108.065.158.103l-.087.122c-.007.011-.017.02-.029.026-.012.007-.026.01-.042.011-.021 0-.04-.006-.057-.016h.001a.89203.89203 0 0 1-.094-.05l.005.003c-.034-.019-.074-.037-.115-.052l-.006-.002c-.046-.017-.102-.032-.16-.043l-.007-.001c-.065-.011-.141-.017-.218-.017h-.013.001-.011c-.121 0-.238.02-.346.057l.008-.002c-.101.035-.192.088-.267.156-.072.067-.129.149-.166.241l-.002.005c-.038.098-.061.211-.061.329s.022.232.063.336l-.002-.006c.039.093.101.178.181.249.074.068.164.121.264.156.115.034.237.047.359.039zm2.888-.031h.989v.225h-1.291v-1.975h.309l-.007 1.75zm2.018.226h-.309v-1.975h.309v1.975zm1.153-1.966c.019.009.034.021.047.036l1.324 1.489c-.001-.011-.001-.023-.001-.035s0-.025.001-.037v.002-1.472h.27v1.984h-.166c-.021 0-.04-.004-.058-.012h.001c-.019-.01-.035-.022-.048-.037l-1.323-1.488v1.536h-.259v-1.975h.161c.018 0 .035.003.051.009zm3.923-.01v.217h-1.098v.652h.89v.21h-.89v.674h1.098v.218h-1.417v-1.971h1.417zm-32.467-12.2 13.757 3.372v11.818l-13.757-3.371V4.616zm-.882-1.008V17.01l15.52 3.806V7.417L10.404 3.61z"/>
      <path d="M18.722 27.036 3.2 23.227V9.828l15.522 3.807v13.401z"/>
      <path d="m10.661 4.465 13.578 3.33-5.774 4.987L4.886 9.45l5.776-4.986zm-.257-.856L3.2 9.828l15.522 3.808 7.202-6.22-15.52-3.807zm9.191 22.673 6.329-5.466-6.33-1.552v7.019z"/>
    </symbol>
    <symbol id="icon-client-5" viewBox="0 0 57 32">
      <path d="M14.27 23.859c.13.147.199.332.196.521.001.012.001.026.001.039 0 .117-.026.227-.073.326l.002-.005c-.056.119-.135.218-.232.296l-.002.001c-.221.152-.494.243-.789.243-.032 0-.064-.001-.096-.003h.004-1.549v-3.301h1.517c.027-.002.058-.003.09-.003.279 0 .539.083.756.225l-.005-.003c.098.076.176.171.227.277.051.108.074.224.068.341.009.181-.053.361-.176.505-.118.131-.281.222-.462.258.205.034.391.134.523.283zm-1.816-.498h.649c.147.01.293-.029.412-.11.047-.039.085-.088.109-.144l.001-.003c.019-.043.03-.092.03-.145 0-.011-.001-.022-.001-.033v.001c.001-.008.001-.018.001-.028 0-.053-.011-.104-.031-.15l.001.002c-.025-.058-.062-.108-.108-.147h-.001c-.105-.071-.234-.113-.373-.113-.018 0-.036.001-.054.002h.002-.638v.867zm1.124 1.266c.051-.04.091-.091.118-.149l.001-.003c.022-.046.034-.101.034-.158 0-.009 0-.018-.001-.027v.001c0-.007.001-.016.001-.024 0-.059-.013-.115-.037-.165l.001.002c-.029-.061-.07-.112-.121-.151l-.001-.001c-.112-.076-.249-.121-.397-.121-.015 0-.03 0-.045.001h.002-.68v.908h.689c.155.008.308-.032.435-.115zm3.793.651-.843-1.291h-.317v1.291h-.726v-3.302h1.374c.029-.002.064-.003.098-.003.323 0 .622.107.862.287l-.004-.003c.192.179.308.415.327.666.002.021.002.045.002.069 0 .241-.086.461-.228.633l.001-.002c-.171.175-.396.296-.649.335l-.006.001.899 1.319h-.789zm-1.161-1.74h.594c.412 0 .619-.166.619-.5 0-.008.001-.017.001-.027 0-.063-.013-.122-.035-.176l.001.003c-.028-.067-.068-.124-.118-.171-.113-.085-.255-.136-.41-.136-.02 0-.04.001-.06.003h.003-.601l.007 1.005zm5.129 1.075h-1.446l-.255.665h-.761l1.328-3.265h.823l1.323 3.265h-.761l-.25-.665zm-.194-.499-.529-1.394-.529 1.394h1.057zm5.16 1.164h-.72l-1.616-2.245v2.245h-.719v-3.302h.719l1.616 2.259v-2.259h.72v3.302zm4.113-.79c-.149.249-.376.452-.652.582-.28.132-.608.209-.955.209-.021 0-.041 0-.062-.001h.003-1.282v-3.302h1.283c.018 0 .039-.001.06-.001.345 0 .673.075.968.209l-.015-.006c.276.128.503.329.652.576.148.269.226.565.226.867s-.077.597-.226.866zm-.825-.079c.196-.205.317-.482.318-.788 0-.289-.113-.569-.318-.788-.223-.177-.509-.284-.82-.284-.029 0-.058.001-.086.003h.004-.5v2.138h.5c.025.002.054.003.083.003.311 0 .596-.107.822-.285l-.003.002zm-7.803-20.8s9.3 3.215 9.103 7.867v7.869s-9.294-3.216-9.1-7.869l-.003-7.867zm17.389 13.894c1.757-1.107 3.788-1.792 5.909-1.994v-2.464c-2.444.863-4.517 2.427-5.909 4.458z"/>
      <path d="M38.124 18.245c1.437-2.651 3.93-4.696 6.964-5.716V5.431s-13.245 4.58-12.965 11.205v11.203s.59-.205 1.519-.589c0-.358 0-.719.043-1.083.274-3.075 1.87-5.925 4.439-7.924z"/>
      <path d="M36.864 22.407c.069-.777.225-1.546.463-2.294-1.599 1.725-2.568 3.867-2.769 6.122-.02.213-.03.426-.036.645 1.105-.483 1.942-.895 2.761-1.334l-.214.105c-.235-1.067-.304-2.159-.206-3.244zm.527.04c-.026.273-.041.589-.041.909 0 .718.074 1.419.216 2.094l-.012-.066c3.619-1.983 7.685-5.046 7.528-8.748v-.323c-2.586.265-5.004 1.3-6.885 2.946-.415.932-.702 2.014-.804 3.148l-.003.04z"/>
    </symbol>
    <symbol id="icon-client-4" viewBox="0 0 57 32">
      <path d="M12.878 11.255h-.002c-1.279 0-2.316.921-2.316 2.058v.002c0 1.137 1.037 2.058 2.316 2.058h.002c1.279 0 2.316-.922 2.316-2.058v-.001c0-1.137-1.037-2.059-2.316-2.059zm17.093-.658c-.004-1.579-.711-3.092-1.967-4.209s-2.958-1.745-4.734-1.749c-1.777.003-3.481.631-4.737 1.748s-1.964 2.63-1.968 4.209v8.706s13.405-1.327 13.406-8.704v-.002zM5.867 22.16c.003 1.099.496 2.151 1.37 2.928s2.058 1.214 3.294 1.218c1.236-.003 2.42-.441 3.294-1.218s1.366-1.829 1.37-2.927v-6.058s-9.327.924-9.327 6.057zm4.663 1.085c-.242 0-.477-.063-.678-.183-.195-.115-.35-.281-.447-.48l-.003-.007c-.059-.121-.093-.264-.093-.415 0-.075.009-.148.025-.219l-.001.007c.047-.211.163-.404.334-.556s.388-.255.625-.297c.072-.013.154-.021.239-.021.168 0 .328.03.476.085l-.009-.003c.223.082.414.221.548.4s.206.388.206.603c.001.143-.03.285-.092.417-.066.139-.155.256-.263.352l-.001.001c-.113.101-.248.181-.397.236-.139.053-.3.083-.467.083h-.001v-.004zm9.426-.598h-.9v.93h-.469v-2.276h1.482v.38h-1.013v.588h.9v.378zm2.253-.156c0 .224-.039.42-.118.589s-.193.299-.341.391c-.139.086-.308.138-.489.138h-.018.001c-.189 0-.357-.045-.505-.136-.149-.094-.267-.226-.341-.382l-.002-.006c-.078-.165-.123-.358-.123-.561v-.021.001-.112c0-.224.04-.421.12-.591.081-.171.195-.302.342-.392.148-.092.316-.138.506-.138s.357.046.505.138c.148.091.262.221.342.392.081.17.122.366.122.589v.101zm-.475-.103c0-.238-.043-.42-.128-.544-.076-.113-.203-.186-.348-.186h-.019.001-.018c-.144 0-.271.073-.346.183l-.001.001c-.085.122-.129.301-.13.538v.111c0 .232.043.412.128.54s.208.192.369.192h.018c.143 0 .269-.073.343-.183l.001-.001c.084-.124.127-.304.128-.541v-.111zm1.995.592v-.013c0-.077-.037-.145-.093-.189h-.001c-.062-.048-.175-.098-.338-.15-.15-.047-.278-.1-.399-.163l.014.006c-.259-.14-.388-.328-.388-.564 0-.123.034-.233.103-.328.07-.097.17-.172.299-.227.13-.054.276-.081.437-.081.163 0 .307.029.435.089.127.059.226.141.295.249.071.107.107.229.107.365h-.469c0-.104-.032-.185-.098-.242-.066-.059-.158-.087-.276-.087-.115 0-.204.025-.267.074-.058.042-.096.109-.096.185v.006c0 .074.037.136.111.186.075.05.185.097.33.14.267.08.461.18.583.299s.183.267.183.444c0 .197-.075.352-.224.464s-.349.167-.601.167c-.175 0-.334-.032-.478-.096-.135-.057-.247-.148-.328-.261l-.002-.002c-.07-.105-.112-.234-.112-.373v-.015.001h.47c0 .251.15.377.45.377.111 0 .198-.022.261-.067.057-.041.093-.107.093-.182v-.009zm2.502-1.298h-.697v1.895h-.469v-1.895h-.686v-.38h1.853v.38zm1.637.909h-.9v.61h1.056v.377h-1.525v-2.276h1.522v.38h-1.053v.542h.9v.367zm1.274.153h-.373v.833H28.3v-2.276h.845c.269 0 .476.06.622.18s.219.289.219.508c0 .155-.034.285-.101.389-.075.109-.179.194-.3.245l-.005.002.492.93v.021h-.503l-.427-.832zm-.373-.38h.379c.117 0 .208-.029.273-.089.06-.059.097-.141.097-.231v-.018.001c0-.108-.03-.192-.092-.253s-.154-.092-.28-.092h-.377v.683zm2.84.411v.802h-.469v-2.276h.887c.171 0 .321.031.45.094.13.062.23.151.3.267.069.115.105.245.105.392 0 .223-.077.399-.229.528-.153.128-.363.193-.633.193h-.411zm0-.379h.419c.124 0 .219-.029.283-.087.066-.059.099-.142.099-.25v-.017c0-.098-.037-.187-.099-.254-.066-.068-.156-.104-.272-.106h-.43v.715zm2.965.195h-.9v.61h1.056v.377h-1.525v-2.276h1.522v.38h-1.053v.542h.9v.367zm2.176-.909h-.697v1.895h-.469v-1.895h-.687v-.38h1.853v.38zm1.637.909h-.899v.61h1.056v.377h-1.525v-2.276h1.522v.38h-1.053v.542h.9v.367zm1.274.153h-.373v.833h-.469v-2.276h.846c.269 0 .476.06.622.18s.219.289.219.508c0 .155-.034.285-.101.389-.075.109-.179.194-.301.245l-.005.002.492.93v.021h-.503l-.427-.832zm-.374-.38h.378c.117 0 .209-.029.273-.089.06-.059.097-.141.097-.232v-.018.001c0-.108-.03-.192-.092-.253-.06-.061-.154-.092-.279-.092h-.377v.683zm2.755.616v-.013c0-.077-.037-.146-.094-.189h-.001c-.062-.048-.175-.098-.338-.15-.15-.047-.278-.1-.399-.163l.014.006c-.259-.14-.388-.328-.388-.564 0-.123.035-.233.103-.328.07-.097.17-.172.299-.227.13-.054.276-.081.437-.081.163 0 .307.029.435.089.127.059.226.141.295.249.071.107.107.229.107.365h-.469c0-.104-.032-.185-.098-.242-.066-.059-.158-.087-.276-.087-.115 0-.204.025-.267.074-.058.042-.096.109-.096.186v.005c0 .074.037.136.111.186s.185.097.33.14c.267.08.461.18.583.299s.183.267.183.444c0 .197-.075.352-.224.464s-.349.167-.601.167c-.175 0-.334-.032-.478-.096-.135-.057-.247-.148-.328-.261l-.002-.002c-.07-.105-.112-.234-.112-.373v-.015.001h.47c0 .251.15.377.45.377.111 0 .198-.022.261-.067.057-.041.094-.107.094-.182v-.009z"/>
    </symbol>
    <symbol id="icon-client-3" viewBox="0 0 57 32">
      <path d="M19.417 26.187c.009 0 .017.002.025.005s.015.007.021.013l.116.111c-.091.09-.202.162-.327.211-.129.048-.278.076-.434.076h-.032.002c-.149.003-.298-.021-.436-.071-.128-.046-.237-.114-.33-.2l.001.001c-.09-.085-.161-.188-.21-.302l-.002-.006c-.047-.114-.075-.246-.075-.385v-.012.001-.02c0-.272.118-.516.305-.684l.001-.001c.099-.087.218-.155.349-.201.143-.048.296-.072.45-.07h.028c.139 0 .273.024.398.067l-.009-.003c.115.044.221.104.313.179l-.098.118c-.007.008-.015.015-.024.021-.01.006-.021.009-.034.009h-.006c-.016-.001-.03-.005-.043-.012L19.314 25l-.073-.041c-.066-.032-.144-.057-.225-.07l-.005-.001c-.048-.008-.104-.013-.161-.013h-.013.001-.011c-.112 0-.219.02-.319.055l.007-.002c-.098.034-.182.085-.254.15l.001-.001c-.073.068-.128.149-.164.237-.038.089-.059.193-.059.302v.011-.001.013c0 .11.022.215.061.311l-.002-.005c.036.087.091.167.162.236.067.064.149.115.242.147.095.034.196.051.299.051.059.001.119-.003.178-.01.148-.015.28-.074.385-.164l-.001.001c.015-.012.034-.02.055-.02zm3.358-.558v.012c0 .138-.029.269-.081.387l.002-.006c-.052.12-.126.222-.218.304l-.001.001c-.097.086-.211.154-.337.198l-.007.002c-.132.045-.284.071-.442.071s-.31-.026-.452-.074l.01.003c-.132-.047-.245-.115-.342-.202l.001.001a.89253.89253 0 0 1-.219-.303l-.002-.006c-.05-.116-.078-.251-.078-.393s.029-.277.081-.4l-.003.007c.05-.115.125-.22.221-.309.097-.085.213-.15.341-.194.132-.046.284-.072.442-.072s.31.026.452.075l-.01-.003c.129.045.246.114.343.201.096.088.171.192.22.305.054.127.081.261.078.396zm-.305 0v-.017c0-.108-.02-.211-.058-.305l.002.006c-.071-.182-.216-.322-.396-.384l-.005-.001c-.096-.033-.206-.052-.321-.052s-.225.019-.329.054l.007-.002c-.096.034-.178.085-.246.15-.068.064-.122.143-.156.232l-.001.004c-.035.094-.055.202-.055.316s.02.222.058.322l-.002-.006c.071.182.217.322.399.383l.005.001c.207.068.435.068.643 0 .093-.033.177-.083.245-.148.07-.069.123-.149.156-.236.039-.101.058-.209.055-.316zm2.597.331.031.07c.011-.025.021-.048.033-.07.013-.027.026-.05.039-.072l-.002.003.743-1.174c.015-.02.028-.033.043-.037s.033-.007.051-.007h.23v1.909h-.26v-1.463c-.001-.01-.001-.021-.001-.033s0-.023.001-.035v.002l-.748 1.19c-.01.018-.025.033-.043.043h-.001c-.018.01-.04.016-.063.016H25.075c-.023 0-.044-.006-.063-.016h.001a.11107.11107 0 0 1-.043-.043v-.001l-.77-1.198v1.532h-.251v-1.905h.229c.018 0 .036.002.052.007h-.001c.018.008.032.021.041.037l.759 1.175c.014.02.026.042.037.066l.001.003zm2.796-.095v.715h-.29v-1.906h.649c.123-.002.244.012.362.042.094.023.181.064.256.119.062.049.111.112.144.184l.001.003c.035.078.051.161.05.244v.012c0 .172-.082.325-.209.422l-.001.001c-.075.057-.163.1-.258.126-.098.028-.211.044-.327.044h-.024l-.351-.005zm0-.205h.352c.076.001.153-.009.226-.029.062-.018.116-.046.164-.083l-.001.001c.082-.068.133-.169.133-.282v-.005c0-.006.001-.013.001-.021 0-.049-.011-.095-.03-.137l.001.002c-.024-.052-.059-.095-.101-.13l-.001-.001c-.097-.065-.217-.104-.345-.104-.016 0-.032.001-.048.002h.002-.352v.786zm3.909.922h-.233c-.022 0-.043-.007-.06-.018a.11596.11596 0 0 1-.038-.044v-.001l-.197-.461h-.994l-.205.461c-.018.037-.055.062-.099.062h-.233l.873-1.909h.302l.884 1.909zm-1.44-.708h.82l-.346-.777c-.027-.059-.048-.118-.066-.179l-.034.1c-.01.03-.021.059-.032.081l-.343.775zm2.697-1.191c.017.008.032.02.043.034l1.273 1.439v-1.482h.26v1.909h-.148c-.02 0-.04-.004-.057-.012h.001a.16489.16489 0 0 1-.047-.035l-1.27-1.438c.001.01.001.021.001.033s0 .023-.001.034v-.002 1.419h-.26v-1.909h.154c.018 0 .036.003.052.009zm3.719 1.14v.758h-.291v-.757l-.804-1.15h.266c.021 0 .04.006.056.016.016.013.029.027.039.043l.503.742c.02.032.038.061.052.089s.027.054.037.081l.037-.082c.014-.03.031-.059.05-.087l.496-.747c.011-.015.023-.029.037-.04.016-.012.036-.019.057-.019h.269l-.805 1.155zM24.923 21.47c.126.014.254.025.384.035 1.962-.763 3.622-2.011 4.772-3.588s1.739-3.415 1.694-5.282l-2.162-1.878c.439 1.988.234 4.043-.594 5.935s-2.245 3.547-4.094 4.779z"/>
      <path d="m24.151 21.382.058.011c1.975-1.228 3.481-2.942 4.323-4.922s.981-4.133.4-6.181l-3.08-2.676c1.245 2.199 1.747 4.661 1.445 7.099-.301 2.437-1.392 4.75-3.147 6.669zm10.445-6.541c-.523 2.052-1.794 3.902-3.623 5.276-.5.38-1.064.737-1.658 1.043l-.065.03c1.49-.38 2.859-1.053 4.003-1.966s2.03-2.042 2.592-3.3l-1.249-1.084z"/>
      <path d="m34.106 14.539-1.778-1.545c-.034 1.762-.611 3.483-1.669 4.986s-2.562 2.732-4.352 3.559h.009c.399 0 .797-.021 1.194-.062 1.673-.594 3.151-1.538 4.302-2.748s1.94-2.65 2.295-4.189zm-9.697-8.054L22.287 4.64c-1.897.637-3.527 1.756-4.68 3.212s-1.772 3.179-1.778 4.946c.007 1.952.763 3.846 2.149 5.383 1.385 1.536 3.321 2.628 5.501 3.101 1.946-2.06 3.085-4.605 3.252-7.266s-.647-5.299-2.323-7.531zm14.599 7.769c-.007-2.316-1.07-4.535-2.955-6.173s-4.439-2.561-7.105-2.567h-.021c-1.281 0-2.512.213-3.66.606l.079-.024 12.989 11.286c.423-.919.671-1.995.672-3.128z"/>
    </symbol>
    <symbol id="icon-client-2" viewBox="0 0 57 32">
      <path d="M26.727 3.165h-.073c-.112-.007-.224-.01-.336-.012h-.243c-.212 0-.428.005-.642.016-.007-.001-.016-.001-.024-.001s-.017 0-.025.001h.001c-2.059.12-3.971.635-5.699 1.47l.09-.039-.23.111V16.52l.54-.183c.474-.163.978-.309 1.5-.445 1.29-.345 2.775-.553 4.305-.573h.012v1.551c-.193.001-.38.006-.568.016h-.045c-1.212.068-2.348.25-3.442.537l.12-.027c-1.503.382-2.82.91-4.044 1.586l.087-.044V3.793c1.195-.711 2.578-1.29 4.042-1.665l.11-.024c1.173-.315 2.52-.499 3.909-.505h.231c.273.007.539.019.788.038.658.046 1.31.15 1.949.311v1.527c-.544-.133-1.189-.234-1.849-.282l-.039-.002-.039-.003c-.132-.011-.263-.022-.386-.022zm2.688 1.561c.339.026.69.038 1.044.038 1.464-.006 2.881-.198 4.231-.554l-.117.026c1.502-.383 2.819-.912 4.043-1.587l-.087.044v14.875c-1.195.71-2.578 1.289-4.042 1.665l-.11.024c-1.173.314-2.52.498-3.91.503h-.1c-1.02 0-2.01-.128-2.955-.368l.083.018V4.438c.229.053.466.102.706.142.394.067.81.115 1.214.145zm7.57.116-.54.181c-.496.167-.997.316-1.5.449-1.344.36-2.888.569-4.48.575h-.004c-.352 0-.676-.01-.989-.03l-.43-.028v12.148l.37.032c.342.03.696.045 1.052.045 1.257-.006 2.473-.172 3.631-.48l-.1.023c1.059-.269 1.977-.608 2.848-1.031l-.088.039.23-.111V4.842zM19.06 24.113c-.145-.15-.348-.243-.572-.243-.01 0-.02 0-.03.001h.001-.012c-.121 0-.236.024-.34.067l.006-.002c-.205.082-.364.243-.442.444l-.002.005c-.043.107-.063.22-.062.335v2.023c-.005.142.022.284.079.415.048.104.117.196.203.271.081.068.175.117.277.144.099.027.201.042.302.042.113.001.224-.023.326-.07.304-.135.512-.434.512-.781v-.226h-.53v.192c0 .06-.011.118-.032.171l.001-.003c-.018.045-.044.083-.077.114-.061.047-.137.076-.221.077-.009.001-.02.002-.031.002-.089 0-.168-.043-.216-.11l-.001-.001c-.044-.071-.071-.158-.071-.251v-.021.001-1.887c-.003-.105.019-.208.065-.302.049-.075.132-.124.227-.124.011 0 .022.001.033.002h-.001.01c.092 0 .174.045.226.114l.001.001c.055.071.088.162.088.26v.012-.001.175h.524v-.215c0-.124-.024-.243-.067-.352l.002.006c-.041-.111-.102-.205-.177-.285zm3.142-.022c-.161-.137-.371-.221-.601-.223-.108 0-.215.02-.316.057-.218.078-.391.239-.483.443l-.002.005c-.053.123-.08.257-.077.392v1.94c-.004.137.023.272.077.397.048.105.117.197.205.271.081.075.176.133.279.171.101.037.208.057.316.057.231-.001.442-.087.603-.229l-.001.001c.084-.076.152-.168.199-.271.054-.125.081-.261.077-.397v-1.958c0-.135-.029-.264-.08-.381l.002.006c-.049-.111-.117-.205-.199-.283zm-.247 2.615c.001.009.001.019.001.03 0 .099-.041.188-.106.251-.067.056-.154.091-.249.091s-.182-.034-.25-.091h.001c-.066-.063-.106-.152-.106-.25 0-.011 0-.022.002-.032v.001-1.941c-.001-.009-.001-.019-.001-.03 0-.098.041-.187.106-.25.067-.056.154-.091.249-.091s.182.034.25.091h-.001c.066.063.106.152.106.25 0 .011 0 .021-.001.032v-.001 1.941zm4.374.867v-3.675h-.508l-.668 1.945h-.009l-.674-1.945h-.503v3.674h.525v-2.235h.01l.514 1.58h.262l.518-1.58h.01v2.235h.525zm2.982-3.416a.72687.72687 0 0 0-.297-.201c-.108-.036-.232-.057-.361-.057h-.8v3.675h.524v-1.435h.269c.164.007.326-.027.473-.1.12-.068.217-.163.286-.278l.002-.003c.06-.098.101-.206.12-.32.018-.116.028-.249.028-.385v-.035.002c.005-.176-.012-.353-.051-.525-.037-.132-.104-.246-.193-.338zm-.27 1.12c-.002.07-.02.136-.05.194l.001-.003c-.03.056-.077.101-.133.128l-.002.001c-.065.03-.14.047-.22.047-.01 0-.019 0-.028-.001h.001-.239v-1.249h.27c.008 0 .016-.001.025-.001.077 0 .149.017.214.048l-.003-.001c.054.031.096.078.122.134l.001.002c.029.065.044.134.046.205v.244c0 .085.005.174 0 .252h-.005zm2.75-1.378h-.429l-.81 3.675h.524l.154-.789h.714l.154.789h.523l-.829-3.675zm-.483 2.384.258-1.332h.01l.256 1.332h-.523zm3.865-.171h-.01l-.79-2.213h-.503v3.675h.523v-2.21h.011l.8 2.209h.493v-3.674h-.523v2.213zm3.199-2.213-.421 1.461h-.011l-.421-1.461h-.554l.719 2.122v1.553h.524v-1.553l.719-2.121h-.555zM17.6 28.611h.252v.708h.171v-.708h.251v-.145H17.6v.146zm2.121-.146-.331.853h.182l.07-.194h.34l.073.194h.187l-.339-.853h-.182zm-.027.516.116-.316.116.316h-.232zm2.124.023h.197v.11c-.055.044-.126.072-.203.072H21.8c-.068 0-.129-.032-.169-.081-.04-.057-.063-.127-.063-.203 0-.007 0-.013.001-.02v.001c0-.19.082-.285.245-.285.006-.001.012-.001.018-.001.084 0 .155.058.174.136v.001l.169-.033c-.036-.166-.156-.251-.362-.251h-.011c-.11 0-.211.042-.287.11-.076.075-.124.18-.124.296 0 .011 0 .022.001.033v-.001.02c0 .115.041.22.11.301l-.001-.001c.075.078.181.126.297.126.009 0 .018 0 .027-.001h-.001.014c.134 0 .257-.052.348-.137v-.336h-.37v.144zm2.141-.539h-.173v.853h.597v-.145h-.425v-.708zm1.811 0h-.173v.853h.173v-.853zm1.769.57-.349-.57h-.167v.853h.16v-.557l.343.557h.172v-.853h-.158v.57zm1.601-.093h.425v-.145h-.425v-.187h.457v-.146h-.63v.853h.647v-.145h-.475v-.231zm3.88-.14h-.336v-.336h-.171v.853h.171v-.373h.336v.373h.172v-.853h-.172v.337zm1.609.14h.427v-.145h-.427v-.187h.459v-.146h-.629v.853h.646v-.145h-.475v-.231zm2.183.001c.149-.023.224-.102.224-.237.001-.007.001-.015.001-.024 0-.068-.033-.128-.085-.166h-.001c-.063-.032-.137-.051-.216-.051-.012 0-.023 0-.035.001h.002-.362v.853h.172v-.357h.048c.034 0 .066.007.094.02l-.001-.001c.025.015.046.037.061.062l.186.271h.205l-.104-.166c-.047-.083-.111-.152-.187-.203l-.002-.001zm-.173-.118h-.126v-.214h.135c.011-.001.023-.001.036-.001.049 0 .097.008.141.023l-.003-.001c.023.021.037.05.037.083 0 .037-.018.069-.045.09-.043.014-.092.021-.142.021-.011 0-.022 0-.033-.001h.002zm1.82.117h.425v-.145h-.425v-.187h.459v-.146h-.631v.853h.647v-.145h-.475v-.231z"/>
    </symbol>
    <symbol id="icon-client-1" viewBox="0 0 57 32">
      <path d="m20.267 3.733 3.738 3.538-6.938-.004v17.167H35.2V17.87l3.733 3.534V3.733H20.266zm14.769 13.722L24.439 7.423h10.597v10.032zm-3.29 4.468h-11.81V10.378h.835v10.763h10.975v.781zm-9.021 4.797-.436.899-.436-.899h-.366l.637 1.198v.698h.331v-.698l.635-1.198h-.364zm.549 1.896.154-.442h.734l.155.442h.344l-.717-1.896h-.296l-.716 1.896h.342zm.52-1.493.275.786h-.549l.275-.787zm1.737.74c-.045.067-.071.149-.071.238v.003c0 .16.056.29.168.389s.263.149.45.149c.188 0 .349-.051.485-.153l.107.126h.367l-.278-.33c.109-.149.164-.341.164-.574h-.275c0 .128-.027.244-.079.348l-.366-.432.129-.094c.078-.053.144-.119.195-.195l.002-.003c.038-.061.06-.136.06-.216v-.01c0-.117-.051-.221-.132-.293a.47702.47702 0 0 0-.32-.123h-.02.001c-.153 0-.274.044-.364.13s-.135.203-.135.352c0 .061.014.123.043.189.03.065.082.144.155.237-.14.101-.235.188-.282.261zm.856.42c-.081.066-.185.106-.299.107h-.015c-.082 0-.156-.031-.212-.083-.052-.052-.085-.123-.085-.203v-.011.001c0-.101.052-.192.156-.271l.041-.029.414.489zm-.34-.84c-.09-.11-.134-.202-.134-.275 0-.063.019-.116.055-.157.034-.039.084-.063.139-.063h.015c.052 0 .1.02.135.054.037.035.056.077.056.126v.007c0 .071-.031.134-.08.177l-.041.032-.145.099zm3.086 1.03c.13-.114.205-.272.224-.474h-.328c-.018.135-.059.232-.124.29s-.163.087-.292.087c-.141 0-.249-.054-.323-.162s-.11-.264-.11-.469v-.167c.002-.203.041-.355.117-.46.077-.105.188-.157.331-.157.123 0 .217.03.28.091s.104.158.12.294h.328c-.021-.207-.095-.368-.222-.482s-.296-.171-.506-.171c-.155 0-.292.037-.411.111-.119.076-.213.183-.27.31l-.002.005c-.06.133-.096.288-.096.451v.023-.001.177c.003.174.035.327.098.46s.151.234.266.306c.116.071.249.107.4.107.216 0 .389-.056.519-.169zm1.936-.266c.064-.141.097-.304.097-.49v-.125c0-.169-.036-.329-.102-.473l.003.007c-.06-.134-.156-.243-.274-.318l-.003-.002c-.119-.075-.256-.112-.411-.112s-.291.037-.411.113c-.119.075-.211.182-.277.324-.062.137-.098.297-.098.466v.025-.001.107c.001.181.034.341.099.48.066.139.159.246.279.322.121.075.258.112.411.112.156 0 .293-.037.412-.112.119-.076.212-.183.276-.323zm-.353-1.072c.08.112.119.274.119.484v.099c0 .213-.039.376-.118.487-.078.111-.19.167-.336.167h-.014c-.134 0-.253-.067-.324-.17l-.001-.001c-.081-.114-.121-.275-.121-.483v-.109c.002-.204.043-.362.122-.473.071-.102.188-.168.321-.168h.014-.001c.146 0 .259.056.338.168z"/>
    </symbol>
    <symbol id="icon-linkedin" viewBox="0 0 32 32">
      <path d="M31.992 32v-.001H32V20.263c0-5.741-1.236-10.164-7.948-10.164-3.227 0-5.392 1.771-6.276 3.449h-.093v-2.913h-6.364v21.364h6.627V21.42c0-2.785.528-5.479 3.977-5.479 3.399 0 3.449 3.179 3.449 5.657v10.401h6.62zM.528 10.636h6.635V32H.528V10.636zM3.843 0C1.722 0 0 1.721 0 3.843s1.721 3.879 3.843 3.879c2.121 0 3.843-1.757 3.843-3.879A3.846 3.846 0 0 0 3.843 0z"/>
    </symbol>
    <symbol id="icon-facebook" viewBox="0 0 32 32">
      <path d="M21.329 5.313h2.921V.225C23.746.156 22.013 0 19.994 0c-4.212 0-7.097 2.649-7.097 7.519V12H8.249v5.688h4.648V32h5.699V17.689h4.46l.708-5.688h-5.169V8.082c.001-1.644.444-2.769 2.735-2.769z"/>
    </symbol>
    <symbol id="icon-twitter" viewBox="0 0 32 32">
      <path d="M32 6.078c-1.19.522-2.458.868-3.78 1.036a6.523 6.523 0 0 0 2.886-3.626 13.11 13.11 0 0 1-4.16 1.588A6.574 6.574 0 0 0 22.154 3c-3.632 0-6.556 2.948-6.556 6.562 0 .52.044 1.02.152 1.496-5.454-.266-10.28-2.88-13.522-6.862a6.605 6.605 0 0 0-.898 3.316 6.57 6.57 0 0 0 2.914 5.452 6.479 6.479 0 0 1-2.964-.808v.072c0 3.188 2.274 5.836 5.256 6.446a6.548 6.548 0 0 1-1.72.216 5.8 5.8 0 0 1-1.242-.112c.85 2.598 3.262 4.508 6.13 4.57a13.182 13.182 0 0 1-8.134 2.798c-.538 0-1.054-.024-1.57-.09A18.469 18.469 0 0 0 10.064 29c12.072 0 18.672-10 18.672-18.668 0-.29-.01-.57-.024-.848A13.087 13.087 0 0 0 32 6.078z"/>
    </symbol>
    <symbol id="icon-instagram" viewBox="0 0 32 32">
      <path d="M31.969 9.408c-.075-1.7-.35-2.869-.744-3.882a7.806 7.806 0 0 0-1.851-2.838A7.867 7.867 0 0 0 26.542.844C25.523.45 24.36.175 22.66.1 20.947.019 20.403 0 16.059 0s-4.888.019-6.595.094c-1.7.075-2.869.35-3.882.744a7.803 7.803 0 0 0-2.838 1.85A7.867 7.867 0 0 0 .9 5.52C.506 6.539.231 7.702.156 9.402c-.081 1.713-.1 2.257-.1 6.601s.019 4.888.094 6.595c.075 1.7.35 2.869.744 3.882a7.895 7.895 0 0 0 1.85 2.838 7.867 7.867 0 0 0 2.832 1.844c1.019.394 2.182.669 3.882.744 1.706.075 2.25.094 6.595.094s4.888-.019 6.595-.094c1.7-.075 2.869-.35 3.882-.744a8.184 8.184 0 0 0 4.682-4.682c.394-1.019.669-2.182.744-3.882.075-1.707.094-2.251.094-6.595s-.006-4.888-.081-6.595zm-2.882 13.065c-.069 1.563-.331 2.407-.55 2.969a5.31 5.31 0 0 1-3.038 3.038c-.563.219-1.413.481-2.969.55-1.688.075-2.194.094-6.464.094s-4.782-.019-6.464-.094c-1.563-.069-2.407-.331-2.969-.55a4.926 4.926 0 0 1-1.838-1.194 4.974 4.974 0 0 1-1.194-1.838c-.219-.563-.481-1.413-.55-2.969-.075-1.688-.094-2.194-.094-6.464s.019-4.782.094-6.464c.069-1.563.331-2.407.55-2.969a4.868 4.868 0 0 1 1.2-1.838A4.974 4.974 0 0 1 6.639 3.55c.563-.219 1.413-.481 2.969-.55 1.688-.075 2.194-.094 6.464-.094 4.276 0 4.782.019 6.464.094 1.563.069 2.407.331 2.969.55a4.914 4.914 0 0 1 1.838 1.194 4.974 4.974 0 0 1 1.194 1.838c.219.563.481 1.413.55 2.969.075 1.688.094 2.194.094 6.464s-.019 4.77-.094 6.458z"/>
      <path d="M16.059 7.783c-4.538 0-8.22 3.682-8.22 8.22s3.682 8.22 8.22 8.22c4.539 0 8.22-3.682 8.22-8.22s-3.682-8.22-8.22-8.22zm0 13.552a5.333 5.333 0 0 1 0-10.664 5.333 5.333 0 0 1 0 10.664zM26.524 7.458a1.919 1.919 0 1 1-3.838 0 1.919 1.919 0 0 1 3.838 0z"/>
    </symbol>
    <symbol id="icon-antenna" viewBox="0 0 32 32">
      <path fill="#212121" style="fill:var(--color3, #212121)" d="m30.773 22.098-8.443-8.505.937-4.615c.242.094.499.144.758.146h.006a2.159 2.159 0 1 0-2.008-1.435l-4.96.605L8.972.161a.534.534 0 0 0-.377-.16.532.532 0 0 0-.373.155L6.709 1.66a.534.534 0 0 0 0 .754l.814.826a14.943 14.943 0 0 0 2.519 17.663.513.513 0 0 0 .146.098c-.034.18-.051.364-.052.547v6.187h-6.4a2.67 2.67 0 0 0-2.667 2.667v1.067c0 .295.239.533.533.533h24.533a.533.533 0 0 0 .533-.533v-1.067a2.67 2.67 0 0 0-2.667-2.667h-6.4v-2.742a15.09 15.09 0 0 0 3.049.32 14.854 14.854 0 0 0 7.04-1.783l.818.823a.534.534 0 0 0 .377.16.532.532 0 0 0 .373-.155l1.513-1.504a.534.534 0 0 0 0-.754zM23.28 6.233a1.066 1.066 0 1 1 .752 1.822h-.003a1.067 1.067 0 0 1-.747-1.823h-.002zm-1.256 3.505-.598 2.946-1.175-1.182 1.774-1.763zm-.605-.902-1.92 1.909-1.485-1.493 3.405-.415zM24.004 28.8a1.6 1.6 0 0 1 1.6 1.6v.533H2.137V30.4a1.6 1.6 0 0 1 1.6-1.6h20.267zm-7.467-2.133v1.067h-5.333v-1.067h5.333zM11.204 25.6v-4.053c0-1.294 1.196-2.347 2.667-2.347s2.667 1.053 2.667 2.347V25.6h-5.333zm6.4-1.696v-2.357c0-1.882-1.675-3.413-3.733-3.413a3.8 3.8 0 0 0-3.281 1.786A13.87 13.87 0 0 1 8.311 4.033l18.602 18.708a13.818 13.818 0 0 1-9.309 1.163zm11.289-.684L7.836 2.039l.755-.752 7.935 7.98c.004 0 .006.007.01.01l13.115 13.191-.757.752z"/>
      <path fill="#2196f3" style="fill:var(--color2, #2196f3)" d="M13.876 20.267h-.005a1.6 1.6 0 1 0-.004 3.2h.005a1.6 1.6 0 1 0 .004-3.2zm.373 1.978a.534.534 0 0 1-.752-.756.534.534 0 0 1 .373-.155.532.532 0 0 1 .373.911h.005z"/>
    </symbol>
    <symbol id="icon-astronaut" viewBox="0 0 32 32">
      <path fill="#2196f3" style="fill:var(--color2, #2196f3)" d="M31.974 4.524a.534.534 0 0 0-.43-.363l-1.91-.278-.855-1.731c-.179-.365-.777-.365-.956 0l-.855 1.731-1.91.278a.535.535 0 0 0-.296.91l1.383 1.348-.326 1.903c-.034.2.048.402.212.522a.53.53 0 0 0 .562.04l1.709-.899 1.709.899a.536.536 0 0 0 .775-.563l-.326-1.903 1.383-1.348a.536.536 0 0 0 .135-.547zm-2.463 1.327a.534.534 0 0 0-.153.472l.191 1.114-1-.526a.533.533 0 0 0-.498 0l-1.001.526.191-1.114a.534.534 0 0 0-.153-.472l-.81-.789 1.119-.163a.532.532 0 0 0 .402-.292l.5-1.013.5 1.013a.535.535 0 0 0 .402.292l1.119.163-.809.789zM26.134 20.522h-1.067v1.067h1.067v-1.067zM26.134 22.656h-1.067v1.067h1.067v-1.067zM27.2 21.589h-1.067v1.067H27.2v-1.067zM25.067 21.589H24v1.067h1.067v-1.067zM22.4 26.389h-1.067v1.067H22.4v-1.067zM22.4 28.522h-1.067v1.067H22.4v-1.067zM23.467 27.456H22.4v1.067h1.067v-1.067zM21.333 27.456h-1.067v1.067h1.067v-1.067zM16 24.256h-1.067v1.067H16v-1.067zM16 26.389h-1.067v1.067H16v-1.067zM17.067 25.322H16v1.067h1.067v-1.067zM14.933 25.322h-1.067v1.067h1.067v-1.067zM5.867 6.122H4.8v1.067h1.067V6.122zM5.867 8.255H4.8v1.067h1.067V8.255z"/>
      <path fill="#2196f3" style="fill:var(--color2, #2196f3)" d="M6.933 7.189H5.866v1.067h1.067V7.189zM4.8 7.189H3.733v1.067H4.8V7.189z"/>
      <path fill="#212121" style="fill:var(--color3, #212121)" d="M24.715 14.159a1.775 1.775 0 0 0-1.188-.705 1.778 1.778 0 0 0-1.34.352l-1.252.96-1.898 1.417-1.358-.541c2.421-1.086 4.114-3.508 4.114-6.32 0-3.823-3.123-6.933-6.961-6.933s-6.961 3.11-6.961 6.933a6.86 6.86 0 0 0 1.12 3.758l-2.764-.024h-.005c-.009 0-.015.004-.023.005a.515.515 0 0 0-.155.031l-.038.013c-.006.003-.013.003-.019.006l-3.233 1.596-.001.001-1.893.911a.397.397 0 0 0-.063.035 1.779 1.779 0 0 0-.598 2.295c.22.429.595.745 1.056.889a1.776 1.776 0 0 0 1.378-.128l1.388-.738 2.264-1.169 1.357-.008L2.2 22.211l-.002.001-1.339 1.333c-.316.315-.49.732-.49 1.178s.174.863.49 1.179c.325.323.752.485 1.179.485s.854-.162 1.18-.485l1.314-1.309 1.741-1.3.901.897-1.762 1.754-.002.001-1.339 1.333c-.316.315-.49.732-.49 1.178s.174.863.49 1.179c.325.323.753.485 1.18.485s.855-.162 1.18-.485l3.482-3.467.001-.002 1.01-1-.004-.004c.006-.006.015-.009.022-.015l5.166-5.658 3.471.494a.52.52 0 0 0 .262-.033c.018-.006.033-.015.05-.023.019-.01.039-.015.058-.027l3.213-2.133c.012-.008.018-.021.029-.029.013-.01.029-.014.041-.026l1.271-1.191c.662-.62.753-1.635.212-2.362zM2.13 17.77a.714.714 0 0 1-.558.052.717.717 0 0 1-.213-1.26l1.314-.632.449 1.312-.992.528zm3.498-1.828-1.548.8-.439-1.283 2.027-1.001-.04 1.484zm15.099-6.62a5.79 5.79 0 0 1-.599 2.559l-4.181-1.899a1.863 1.863 0 0 0-.788-1.388l1.464-4.86c2.378.756 4.105 2.974 4.105 5.588zm-11.789 0c0-3.235 2.644-5.867 5.894-5.867.253 0 .5.021.745.052l-1.432 4.754c-.019-.001-.037-.006-.057-.006-1.033 0-1.873.837-1.873 1.867s.84 1.867 1.873 1.867c.694 0 1.294-.383 1.618-.945l3.862 1.755a5.894 5.894 0 0 1-4.737 2.39c-3.25 0-5.894-2.632-5.894-5.867zm5.956.8c0 .441-.362.8-.806.8s-.806-.359-.806-.8c0-.441.362-.8.806-.8s.806.359.806.8zM2.465 25.146a.608.608 0 0 1-.854.001.592.592 0 0 1 0-.844l.962-.958.851.848-.959.955zm3.214 3.734a.608.608 0 0 1-.855.001.592.592 0 0 1 0-.844l.963-.959.852.848-.96.955zm3.481-3.469-.002.001-1.765 1.76-.852-.848 1.763-1.755.002-.001c.04-.04.065-.088.09-.135.007-.014.02-.026.026-.04.017-.041.019-.085.026-.129.003-.025.014-.047.014-.073 0-.036-.013-.07-.02-.106-.006-.032-.006-.065-.019-.095a.55.55 0 0 0-.091-.138c-.01-.012-.014-.027-.025-.038h-.001l-.001-.002-1.607-1.6c-.017-.017-.039-.024-.058-.038a.507.507 0 0 0-.087-.058.515.515 0 0 0-.093-.033.507.507 0 0 0-.103-.02.5.5 0 0 0-.095.005.53.53 0 0 0-.104.02.477.477 0 0 0-.094.045c-.02.011-.042.015-.061.029L4.23 23.486l-.901-.897 2.399-2.386 4.361 4.289-.928.919zm6.819-7.017c-.015-.002-.03.004-.045.003a.556.556 0 0 0-.3.075.492.492 0 0 0-.083.061c-.013.011-.028.017-.04.029l-4.698 5.146-4.328-4.257 2.833-2.818a.534.534 0 0 0-.379-.911v-.001l-2.219.013.028-1.607 3.104.027a6.947 6.947 0 0 0 4.981 2.101c.437 0 .864-.045 1.279-.123.04.032.079.065.13.085l2.41.96.331 1.644-3.003-.427zm4.041.178-.313-1.558 1.446-1.08.947 1.257-2.08 1.381zm3.754-2.831-.838.785-.931-1.236.831-.637a.735.735 0 0 1 .543-.143.718.718 0 0 1 .48.284.713.713 0 0 1-.085.947z"/>
      <path fill="#212121" style="fill:var(--color3, #212121)" d="m13.602 18.544-2.143-2.133a.534.534 0 0 0-.753 0l-2.142 2.133a.537.537 0 0 0 0 .756l2.142 2.133a.536.536 0 0 0 .753 0l2.143-2.133a.535.535 0 0 0 0-.756zm-2.519 1.759-1.387-1.381 1.387-1.381 1.387 1.381-1.387 1.381zM17.164 5.071l-.258 1.036c.071.018 1.738.452 1.738 2.149h1.067c0-2.017-1.666-2.965-2.547-3.185zM19.711 9.322h-1.067v1.067h1.067V9.322z"/>
    </symbol>
    <symbol id="icon-diagram" viewBox="0 0 32 32">
      <path fill="#2196f3" style="fill:var(--color2, #2196f3)" d="M14.926 14.965h1.066v4.798h-1.066v-4.797zM19.19 17.097h1.066v2.665H19.19v-2.665zM10.661 18.696h1.066v1.066h-1.066v-1.066zM7.463 18.163h1.066v1.599H7.463v-1.599z"/>
      <path fill="#212121" style="fill:var(--color3, #212121)" d="M1.599 28.291h25.587a1.6 1.6 0 0 0 1.599-1.599V24.56a1.6 1.6 0 0 0-1.599-1.599h-.533V9.668L29.681 6.8a1.608 1.608 0 1 0-.746-.763L26.654 8.2V6.97a1.6 1.6 0 0 0-1.599-1.599H3.733A1.6 1.6 0 0 0 2.134 6.97v15.992h-.533a1.6 1.6 0 0 0-1.599 1.599v2.132a1.6 1.6 0 0 0 1.599 1.599zM30.384 4.837a.533.533 0 1 1 0 1.067.533.533 0 0 1 0-1.067zM3.198 6.969c0-.294.239-.533.533-.533h21.322c.294 0 .533.239.533.533v2.239l-1.066 1.013V8.035a.533.533 0 0 0-.533-.533H4.797a.533.533 0 0 0-.533.533v13.326c0 .294.239.533.533.533h19.19a.533.533 0 0 0 .533-.533v-9.674l1.066-1.01v12.284H3.198V6.969zm4.798 6.93a1.598 1.598 0 1 0 1.107 2.749l1.853.93a.532.532 0 0 0 .636-.123l3.939-4.431 3.872 2.901a.533.533 0 0 0 .686-.039l3.365-3.188v8.131H5.33V8.569h18.124v2.66l-3.771 3.572-3.904-2.927a.533.533 0 0 0-.718.072l-3.993 4.493-1.493-.746c.011-.064.018-.129.02-.193a1.6 1.6 0 0 0-1.599-1.599zm.533 1.599a.533.533 0 1 1-1.067 0 .533.533 0 0 1 1.067 0zm3.198 8.529h5.331v.533a.533.533 0 0 1-.533.533h-4.264a.533.533 0 0 1-.533-.533v-.533zm-10.661.533c0-.294.239-.533.533-.533h9.062v.533a1.6 1.6 0 0 0 1.599 1.599h4.264a1.6 1.6 0 0 0 1.599-1.599v-.533h9.062c.294 0 .533.239.533.533v2.132a.533.533 0 0 1-.533.533H1.598a.533.533 0 0 1-.533-.533V24.56z"/>
    </symbol>
    <symbol id="icon-clock" viewBox="0 0 32 32">
      <path fill="#212121" style="fill:var(--color3, #212121)" d="M31.297 15.301C31.295 6.849 24.442-.002 15.989 0S.686 6.855.688 15.308a15.304 15.304 0 0 0 10.649 14.576.662.662 0 0 0 .529-.065.637.637 0 0 0 .283-.356l3.865-12.25a1.912 1.912 0 1 0-.84-3.635l-5.106-5.107a.637.637 0 0 0-.902.902l5.103 5.109a1.876 1.876 0 0 0 .536 2.309l-3.683 11.673C3.844 25.783.118 17.71 2.799 10.432S13.553-.572 20.831 2.109s11.004 10.754 8.323 18.032a14.042 14.042 0 0 1-7.462 7.973l-.398-1.874a.638.638 0 0 0-1.048-.344l-3.837 3.426a.637.637 0 0 0 .231 1.084l4.899 1.563a.638.638 0 0 0 .819-.74l-.391-1.839a15.255 15.255 0 0 0 9.329-14.089zm-15.305-.637a.638.638 0 1 1 0 1.277.638.638 0 0 1 0-1.277zm2.101 14.864 2.184-1.948.603 2.84-2.787-.892z"/>
      <path fill="#2196f3" style="fill:var(--color2, #2196f3)" d="M15.354 3.185V4.46a.638.638 0 1 0 1.276 0V3.185a.638.638 0 0 0-1.276 0zM3.876 14.664a.638.638 0 0 0 0 1.276h1.275a.638.638 0 1 0 0-1.276H3.876zM28.108 15.939a.638.638 0 1 0 0-1.276h-1.275a.638.638 0 0 0 0 1.276h1.275z"/>
    </symbol>
    <symbol id="icon-smartphone" viewBox="0 0 20 32">
      <path d="M17 0H3C1.346 0 0 1.346 0 3v26c0 1.654 1.346 3 3 3h14c1.654 0 3-1.346 3-3V3c0-1.654-1.346-3-3-3zM3 2h14a1 1 0 0 1 1 1v21H2V3a1 1 0 0 1 1-1zm14 28H3a1 1 0 0 1-1-1v-3h16v3a1 1 0 0 1-1 1z"/>
      <path d="M4.707 27.478c.391.365.391.956 0 1.321s-1.024.365-1.414 0c-.391-.365-.391-.956 0-1.321s1.024-.365 1.414 0z"/>
    </symbol>
    <symbol id="icon-mail" viewBox="0 0 43 32">
      <path d="M38.667 0H4C1.794 0 0 1.794 0 4v24c0 2.206 1.794 4 4 4h34.667c2.206 0 4-1.794 4-4V4c0-2.206-1.794-4-4-4zm0 2.667c.181 0 .353.038.511.103L21.334 18.236 3.49 2.77a1.32 1.32 0 0 1 .511-.103h34.667zm0 26.666H4A1.334 1.334 0 0 1 2.667 28V5.587L20.46 21.008a1.335 1.335 0 0 0 1.748 0L40.001 5.587V28c0 .736-.598 1.333-1.333 1.333z"/>
    </symbol>
    <symbol id="icon-vector" viewBox="0 0 32 32">
      <path d="M32 3.223l-3.223-3.223-12.777 12.777-12.777-12.777-3.223 3.223 12.777 12.777-12.777 12.777 3.223 3.223 12.777-12.777 12.777 12.777 3.223-3.223-12.777-12.777 12.777-12.777z"></path>
    </symbol>
    <symbol id="icon-telegram" viewBox="0 0 32 32">
    <path  d="M32 0l-32 18 10.227 3.787 15.773-14.787-11.997 16.187 0.009 0.003-0.012-0.003v8.813l5.735-6.691 7.267 2.691 4.999-28z"></path>
    </symbol>
    <symbol id="icon-form-person" viewBox="0 0 32 32">
    <path d="M16 16c2.946 0 5.333-2.388 5.333-5.333s-2.388-5.333-5.333-5.333v0c-2.946 0-5.333 2.388-5.333 5.333s2.388 5.333 5.333 5.333v0zM16 18.667c-3.561 0-10.667 1.787-10.667 5.333v1.333c0 0.732 0.599 1.333 1.333 1.333h18.667c0.732 0 1.333-0.601 1.333-1.333v-1.333c0-3.547-7.108-5.333-10.667-5.333z"></path>
    </symbol>
    <symbol id="icon-form-phone" viewBox="0 0 32 32">
    <path d="M24.882 19.774l-3.268-0.373c-0.090-0.011-0.194-0.018-0.3-0.018-0.707 0-1.347 0.287-1.81 0.75l-2.368 2.368c-3.669-1.894-6.585-4.81-8.427-8.372l-0.051-0.108 2.382-2.377c0.463-0.463 0.75-1.103 0.75-1.81 0-0.106-0.006-0.21-0.019-0.312l0.001 0.012-0.373-3.243c-0.155-1.287-1.24-2.276-2.557-2.276-0.001 0-0.002 0-0.003 0h-2.226c-1.454 0-2.663 1.209-2.574 2.661 0.683 10.987 9.47 19.762 20.444 20.444 1.452 0.089 2.663-1.12 2.663-2.574v-2.226c0-0.004 0-0.008 0-0.012 0-1.308-0.985-2.386-2.253-2.532l-0.012-0.001z"></path>
    </symbol>
    <symbol id="icon-form-email" viewBox="0 0 32 32">
    <path d="M26.667 5.333h-21.333c-1.467 0-2.652 1.2-2.652 2.667l-0.014 16c0 1.467 1.2 2.667 2.667 2.667h21.333c1.467 0 2.667-1.2 2.667-2.667v-16c0-1.467-1.2-2.667-2.667-2.667zM26.133 11.001l-9.426 5.892c-0.201 0.126-0.446 0.2-0.708 0.2s-0.506-0.075-0.713-0.204l0.006 0.003-9.426-5.892c-0.336-0.201-0.557-0.562-0.557-0.975 0-0.625 0.507-1.132 1.132-1.132 0.233 0 0.449 0.070 0.629 0.19l-0.004-0.003 8.933 5.586 8.933-5.588c0.176-0.118 0.392-0.188 0.624-0.188 0.625 0 1.132 0.507 1.132 1.132 0 0.413-0.221 0.775-0.552 0.972l-0.005 0.003z"></path>
    </symbol>
    <symbol id="icon-frame" viewBox="0 0 34 32">
    <path d="M30.34 3.556v24.887h-26.547v-24.887h26.547zM30.34 0h-26.547c-2.086 0-3.793 1.6-3.793 3.556v24.887c0 1.956 1.707 3.556 3.793 3.556h26.547c2.086 0 3.793-1.6 3.793-3.556v-24.887c0-1.956-1.707-3.556-3.793-3.556z"></path>
    </symbol>
    <symbol id="icon-check" viewBox="0 0 34 32">
    <path d="M8.442 16.538l-0.147-0.141-0.147 0.139-2.057 1.95 0.162 0.156 7.605 7.253 0.147-0.141 16.171-15.426-0.162-0.154-2.029-1.935-0.147 0.141-13.98 13.325-5.417-5.167z"></path>
    </symbol>
  </defs>
</svg>
